<svg width="18" height="18" viewBox="0 0 18 18" fill="none" xmlns="http://www.w3.org/2000/svg">
<g id="bi:whatsapp" clip-path="url(#clip0_314_260)">
<path id="Vector" d="M15.3011 2.61681C14.4761 1.78374 13.4934 1.12331 12.4104 0.674043C11.3274 0.224772 10.1657 -0.00434342 8.99325 6.23532e-05C4.08037 6.23532e-05 0.0765 4.00281 0.072 8.91681C0.072 10.4907 0.48375 12.0218 1.26112 13.3774L0 18.0001L4.7295 16.7603C6.0373 17.4738 7.50347 17.8471 8.99325 17.8459H8.99775C13.9117 17.8459 17.9145 13.8432 17.919 8.92469C17.92 7.7525 17.6891 6.5917 17.2396 5.50912C16.7901 4.42654 16.1321 3.44357 15.3011 2.61681ZM8.99325 16.3362C7.66482 16.3351 6.361 15.9777 5.21775 15.3012L4.94775 15.1392L2.142 15.8749L2.89125 13.1378L2.71575 12.8554C1.97303 11.6746 1.58023 10.3073 1.58287 8.91231C1.58287 4.83306 4.9095 1.50531 8.99775 1.50531C9.97171 1.50357 10.9364 1.69462 11.8361 2.06747C12.7359 2.44031 13.553 2.98757 14.2402 3.67769C14.9298 4.36523 15.4764 5.18242 15.8487 6.08218C16.2209 6.98194 16.4114 7.94646 16.4092 8.92019C16.4047 13.0141 13.0781 16.3362 8.99325 16.3362ZM13.0601 10.7854C12.8385 10.6741 11.7439 10.1352 11.538 10.0587C11.3332 9.98556 11.1836 9.94731 11.0374 10.1701C10.8877 10.3917 10.4602 10.8968 10.332 11.0419C10.2037 11.1916 10.071 11.2084 9.84825 11.0982C9.62662 10.9857 8.90775 10.7517 8.05725 9.99006C7.3935 9.39944 6.94912 8.66819 6.81637 8.44656C6.68812 8.22381 6.804 8.10456 6.91537 7.99319C7.01325 7.89419 7.137 7.73219 7.24837 7.60394C7.36087 7.47569 7.398 7.38119 7.47112 7.23269C7.54425 7.08194 7.50937 6.95369 7.45425 6.84231C7.398 6.73094 6.95362 5.63181 6.76575 5.18856C6.58575 4.75094 6.40237 4.81169 6.26512 4.80606C6.13687 4.79819 5.98725 4.79819 5.83762 4.79819C5.72465 4.80106 5.61348 4.82723 5.51107 4.87504C5.40867 4.92285 5.31724 4.99129 5.2425 5.07606C5.03775 5.29881 4.46512 5.83769 4.46512 6.93681C4.46512 8.03594 5.26387 9.09231 5.37637 9.24194C5.48662 9.39156 6.94462 11.6404 9.18225 12.6079C9.711 12.8386 10.1272 12.9747 10.4524 13.0782C10.9867 13.2492 11.4694 13.2233 11.8541 13.1682C12.2816 13.1029 13.1715 12.6282 13.3594 12.1073C13.5439 11.5853 13.5439 11.1398 13.4876 11.0464C13.4325 10.9519 13.2829 10.8968 13.0601 10.7854Z" fill="#464330"/>
</g>
<defs>
<clipPath id="clip0_314_260">
<rect width="18" height="18" fill="white"/>
</clipPath>
</defs>
</svg>
